<mxfile host="app.diagrams.net" modified="2025-07-26T10:00:00.000Z" agent="Vehicle Tracking Data Flow" etag="v1.0" version="24.7.6">
  <diagram name="Data Flow Architecture" id="data-flow">
    <mxGraphModel dx="2200" dy="1300" grid="1" gridSize="10" guides="1" tooltips="1" connect="1" arrows="1" fold="1" page="1" pageScale="1" pageWidth="1654" pageHeight="1169" background="#ffffff">
      <root>
        <mxCell id="0"/>
        <mxCell id="1" parent="0"/>
        
        <!-- Title -->
        <mxCell id="title" value="Vehicle Tracking System - Data Flow Architecture" style="text;html=1;strokeColor=none;fillColor=none;align=center;verticalAlign=middle;whiteSpace=wrap;rounded=0;fontSize=18;fontStyle=1;fontColor=#232F3E;" vertex="1" parent="1">
          <mxGeometry x="550" y="20" width="500" height="30" as="geometry"/>
        </mxCell>
        
        <!-- IoT Data Flow -->
        <mxCell id="iot-flow-title" value="IoT Sensor Data Flow" style="text;html=1;strokeColor=none;fillColor=none;align=left;verticalAlign=middle;whiteSpace=wrap;rounded=0;fontSize=14;fontStyle=1;fontColor=#4CAF50;" vertex="1" parent="1">
          <mxGeometry x="50" y="80" width="200" height="20" as="geometry"/>
        </mxCell>
        
        <mxCell id="vehicle-sensors" value="Vehicle Sensors&#xa;(GPS, Engine, Fuel)" style="rounded=1;whiteSpace=wrap;html=1;fillColor=#4CAF50;strokeColor=#2E7D32;fontColor=white;" vertex="1" parent="1">
          <mxGeometry x="50" y="110" width="120" height="60" as="geometry"/>
        </mxCell>
        
        <mxCell id="iot-core-flow" value="AWS IoT Core&#xa;MQTT Topics" style="rounded=1;whiteSpace=wrap;html=1;fillColor=#FF9800;strokeColor=#F57C00;fontColor=white;" vertex="1" parent="1">
          <mxGeometry x="220" y="110" width="120" height="60" as="geometry"/>
        </mxCell>
        
        <mxCell id="kinesis-flow" value="Kinesis Streams&#xa;Real-time Processing" style="rounded=1;whiteSpace=wrap;html=1;fillColor=#2196F3;strokeColor=#1976D2;fontColor=white;" vertex="1" parent="1">
          <mxGeometry x="390" y="110" width="120" height="60" as="geometry"/>
        </mxCell>
        
        <mxCell id="telemetry-lambda" value="Telemetry Processor&#xa;Lambda" style="rounded=1;whiteSpace=wrap;html=1;fillColor=#FF5722;strokeColor=#D84315;fontColor=white;" vertex="1" parent="1">
          <mxGeometry x="560" y="110" width="120" height="60" as="geometry"/>
        </mxCell>
        
        <!-- Data Storage Options -->
        <mxCell id="hot-storage" value="Hot Storage&#xa;DynamoDB (48h TTL)" style="rounded=1;whiteSpace=wrap;html=1;fillColor=#E91E63;strokeColor=#C2185B;fontColor=white;" vertex="1" parent="1">
          <mxGeometry x="730" y="80" width="120" height="50" as="geometry"/>
        </mxCell>
        
        <mxCell id="warm-storage" value="Warm Storage&#xa;DynamoDB (30d TTL)" style="rounded=1;whiteSpace=wrap;html=1;fillColor=#9C27B0;strokeColor=#7B1FA2;fontColor=white;" vertex="1" parent="1">
          <mxGeometry x="730" y="140" width="120" height="50" as="geometry"/>
        </mxCell>
        
        <mxCell id="cold-storage" value="Cold Storage&#xa;S3 + Athena" style="rounded=1;whiteSpace=wrap;html=1;fillColor=#607D8B;strokeColor=#455A64;fontColor=white;" vertex="1" parent="1">
          <mxGeometry x="730" y="200" width="120" height="50" as="geometry"/>
        </mxCell>
        
        <!-- Video Processing Flow -->
        <mxCell id="video-flow-title" value="Video Processing Flow" style="text;html=1;strokeColor=none;fillColor=none;align=left;verticalAlign=middle;whiteSpace=wrap;rounded=0;fontSize=14;fontStyle=1;fontColor=#E91E63;" vertex="1" parent="1">
          <mxGeometry x="50" y="300" width="200" height="20" as="geometry"/>
        </mxCell>
        
        <mxCell id="vehicle-cameras" value="Vehicle Cameras&#xa;HD Video Streams" style="rounded=1;whiteSpace=wrap;html=1;fillColor=#E91E63;strokeColor=#C2185B;fontColor=white;" vertex="1" parent="1">
          <mxGeometry x="50" y="330" width="120" height="60" as="geometry"/>
        </mxCell>
        
        <mxCell id="video-processor" value="Video Processor&#xa;Lambda" style="rounded=1;whiteSpace=wrap;html=1;fillColor=#FF5722;strokeColor=#D84315;fontColor=white;" vertex="1" parent="1">
          <mxGeometry x="220" y="330" width="120" height="60" as="geometry"/>
        </mxCell>
        
        <mxCell id="s3-video" value="S3 Video Storage&#xa;Intelligent Tiering" style="rounded=1;whiteSpace=wrap;html=1;fillColor=#4CAF50;strokeColor=#2E7D32;fontColor=white;" vertex="1" parent="1">
          <mxGeometry x="390" y="330" width="120" height="60" as="geometry"/>
        </mxCell>
        
        <mxCell id="rekognition" value="Amazon Rekognition&#xa;AI Analysis" style="rounded=1;whiteSpace=wrap;html=1;fillColor=#FF9800;strokeColor=#F57C00;fontColor=white;" vertex="1" parent="1">
          <mxGeometry x="560" y="330" width="120" height="60" as="geometry"/>
        </mxCell>
        
        <mxCell id="video-metadata" value="Video Metadata&#xa;DynamoDB" style="rounded=1;whiteSpace=wrap;html=1;fillColor=#2196F3;strokeColor=#1976D2;fontColor=white;" vertex="1" parent="1">
          <mxGeometry x="730" y="330" width="120" height="60" as="geometry"/>
        </mxCell>
        
        <!-- Sales Data Flow -->
        <mxCell id="sales-flow-title" value="Sales Data Flow" style="text;html=1;strokeColor=none;fillColor=none;align=left;verticalAlign=middle;whiteSpace=wrap;rounded=0;fontSize=14;fontStyle=1;fontColor=#607D8B;" vertex="1" parent="1">
          <mxGeometry x="50" y="450" width="200" height="20" as="geometry"/>
        </mxCell>
        
        <mxCell id="sales-forms" value="Sales Agent&#xa;Web Forms" style="rounded=1;whiteSpace=wrap;html=1;fillColor=#607D8B;strokeColor=#455A64;fontColor=white;" vertex="1" parent="1">
          <mxGeometry x="50" y="480" width="120" height="60" as="geometry"/>
        </mxCell>
        
        <mxCell id="api-gateway-sales" value="API Gateway&#xa;REST Endpoints" style="rounded=1;whiteSpace=wrap;html=1;fillColor=#2196F3;strokeColor=#1976D2;fontColor=white;" vertex="1" parent="1">
          <mxGeometry x="220" y="480" width="120" height="60" as="geometry"/>
        </mxCell>
        
        <mxCell id="sales-lambda" value="Sales APIs&#xa;Lambda Functions" style="rounded=1;whiteSpace=wrap;html=1;fillColor=#FF5722;strokeColor=#D84315;fontColor=white;" vertex="1" parent="1">
          <mxGeometry x="390" y="480" width="120" height="60" as="geometry"/>
        </mxCell>
        
        <mxCell id="sales-dynamodb" value="Sales Tables&#xa;DynamoDB" style="rounded=1;whiteSpace=wrap;html=1;fillColor=#4CAF50;strokeColor=#2E7D32;fontColor=white;" vertex="1" parent="1">
          <mxGeometry x="560" y="480" width="120" height="60" as="geometry"/>
        </mxCell>
        
        <!-- Alert Processing Flow -->
        <mxCell id="alert-flow-title" value="Alert Processing Flow" style="text;html=1;strokeColor=none;fillColor=none;align=left;verticalAlign=middle;whiteSpace=wrap;rounded=0;fontSize=14;fontStyle=1;fontColor=#F44336;" vertex="1" parent="1">
          <mxGeometry x="50" y="600" width="200" height="20" as="geometry"/>
        </mxCell>
        
        <mxCell id="panic-button" value="Panic Button&#xa;Emergency Signal" style="rounded=1;whiteSpace=wrap;html=1;fillColor=#F44336;strokeColor=#D32F2F;fontColor=white;" vertex="1" parent="1">
          <mxGeometry x="50" y="630" width="120" height="60" as="geometry"/>
        </mxCell>
        
        <mxCell id="panic-processor" value="Panic Processor&#xa;Lambda" style="rounded=1;whiteSpace=wrap;html=1;fillColor=#FF5722;strokeColor=#D84315;fontColor=white;" vertex="1" parent="1">
          <mxGeometry x="220" y="630" width="120" height="60" as="geometry"/>
        </mxCell>
        
        <mxCell id="sns-alerts" value="SNS Topics&#xa;Multi-channel Alerts" style="rounded=1;whiteSpace=wrap;html=1;fillColor=#9C27B0;strokeColor=#7B1FA2;fontColor=white;" vertex="1" parent="1">
          <mxGeometry x="390" y="630" width="120" height="60" as="geometry"/>
        </mxCell>
        
        <mxCell id="notifications" value="Notifications&#xa;SMS/Email/Push" style="rounded=1;whiteSpace=wrap;html=1;fillColor=#FF9800;strokeColor=#F57C00;fontColor=white;" vertex="1" parent="1">
          <mxGeometry x="560" y="630" width="120" height="60" as="geometry"/>
        </mxCell>
        
        <!-- Data Processing Details -->
        <mxCell id="processing-details" value="📊 Data Processing Details" style="rounded=1;whiteSpace=wrap;html=1;fillColor=#F5F5F5;strokeColor=#9E9E9E;fontSize=14;fontStyle=1;verticalAlign=top;" vertex="1" parent="1">
          <mxGeometry x="950" y="80" width="300" height="300" as="geometry"/>
        </mxCell>
        
        <mxCell id="iot-details" value="🚗 IoT Sensor Data:&#xa;• 70 vehicles × 120 readings/hour&#xa;• GPS coordinates every 30 seconds&#xa;• Engine diagnostics (RPM, temp, fuel)&#xa;• Driver behavior metrics&#xa;• ~201,600 records/day" style="rounded=1;whiteSpace=wrap;html=1;fillColor=#E8F5E8;strokeColor=#4CAF50;fontSize=11;verticalAlign=top;" vertex="1" parent="1">
          <mxGeometry x="970" y="120" width="260" height="80" as="geometry"/>
        </mxCell>
        
        <mxCell id="video-details" value="📹 Video Processing:&#xa;• HD video streams from cameras&#xa;• Frame extraction for analysis&#xa;• Rekognition for driver behavior&#xa;• Event detection (harsh braking)&#xa;• ~2TB/month storage" style="rounded=1;whiteSpace=wrap;html=1;fillColor=#FCE4EC;strokeColor=#E91E63;fontSize=11;verticalAlign=top;" vertex="1" parent="1">
          <mxGeometry x="970" y="210" width="260" height="80" as="geometry"/>
        </mxCell>
        
        <mxCell id="sales-details" value="💼 Sales Data:&#xa;• Client management (CRM)&#xa;• Contract lifecycle tracking&#xa;• Inventory management&#xa;• Revenue analytics&#xa;• ~1,000 transactions/month" style="rounded=1;whiteSpace=wrap;html=1;fillColor=#F3E5F5;strokeColor=#9C27B0;fontSize=11;verticalAlign=top;" vertex="1" parent="1">
          <mxGeometry x="970" y="300" width="260" height="70" as="geometry"/>
        </mxCell>
        
        <!-- Performance Metrics -->
        <mxCell id="performance-metrics" value="⚡ Performance Metrics" style="rounded=1;whiteSpace=wrap;html=1;fillColor=#F5F5F5;strokeColor=#9E9E9E;fontSize=14;fontStyle=1;verticalAlign=top;" vertex="1" parent="1">
          <mxGeometry x="950" y="420" width="300" height="200" as="geometry"/>
        </mxCell>
        
        <mxCell id="api-performance" value="🔗 API Performance:&#xa;• Response time: &lt;200ms (95th percentile)&#xa;• Throughput: 1000+ requests/second&#xa;• Availability: 99.9% uptime SLA" style="rounded=1;whiteSpace=wrap;html=1;fillColor=#E3F2FD;strokeColor=#2196F3;fontSize=11;verticalAlign=top;" vertex="1" parent="1">
          <mxGeometry x="970" y="450" width="260" height="50" as="geometry"/>
        </mxCell>
        
        <mxCell id="db-performance" value="🗄️ Database Performance:&#xa;• DynamoDB: &lt;10ms query time&#xa;• ElastiCache: &gt;90% hit ratio&#xa;• Auto-scaling enabled" style="rounded=1;whiteSpace=wrap;html=1;fillColor=#E8F5E8;strokeColor=#4CAF50;fontSize=11;verticalAlign=top;" vertex="1" parent="1">
          <mxGeometry x="970" y="510" width="260" height="50" as="geometry"/>
        </mxCell>
        
        <mxCell id="cost-performance" value="💰 Cost Efficiency:&#xa;• $0.10/hour operational cost&#xa;• 90% savings vs traditional solutions&#xa;• Pay-per-use serverless model" style="rounded=1;whiteSpace=wrap;html=1;fillColor=#FFF8E1;strokeColor=#FFC107;fontSize=11;verticalAlign=top;" vertex="1" parent="1">
          <mxGeometry x="970" y="570" width="260" height="50" as="geometry"/>
        </mxCell>
        
        <!-- Data Flow Arrows -->
        <mxCell id="iot-arrow1" style="edgeStyle=orthogonalEdgeStyle;rounded=0;orthogonalLoop=1;jettySize=auto;html=1;strokeWidth=3;strokeColor=#4CAF50;endArrow=block;endFill=1;" edge="1" parent="1" source="vehicle-sensors" target="iot-core-flow">
          <mxGeometry relative="1" as="geometry"/>
        </mxCell>
        
        <mxCell id="iot-arrow2" style="edgeStyle=orthogonalEdgeStyle;rounded=0;orthogonalLoop=1;jettySize=auto;html=1;strokeWidth=3;strokeColor=#FF9800;endArrow=block;endFill=1;" edge="1" parent="1" source="iot-core-flow" target="kinesis-flow">
          <mxGeometry relative="1" as="geometry"/>
        </mxCell>
        
        <mxCell id="iot-arrow3" style="edgeStyle=orthogonalEdgeStyle;rounded=0;orthogonalLoop=1;jettySize=auto;html=1;strokeWidth=3;strokeColor=#2196F3;endArrow=block;endFill=1;" edge="1" parent="1" source="kinesis-flow" target="telemetry-lambda">
          <mxGeometry relative="1" as="geometry"/>
        </mxCell>
        
        <mxCell id="storage-arrow1" style="edgeStyle=orthogonalEdgeStyle;rounded=0;orthogonalLoop=1;jettySize=auto;html=1;strokeWidth=2;strokeColor=#E91E63;endArrow=block;endFill=1;" edge="1" parent="1" source="telemetry-lambda" target="hot-storage">
          <mxGeometry relative="1" as="geometry"/>
        </mxCell>
        
        <mxCell id="storage-arrow2" style="edgeStyle=orthogonalEdgeStyle;rounded=0;orthogonalLoop=1;jettySize=auto;html=1;strokeWidth=2;strokeColor=#9C27B0;endArrow=block;endFill=1;" edge="1" parent="1" source="telemetry-lambda" target="warm-storage">
          <mxGeometry relative="1" as="geometry"/>
        </mxCell>
        
        <mxCell id="storage-arrow3" style="edgeStyle=orthogonalEdgeStyle;rounded=0;orthogonalLoop=1;jettySize=auto;html=1;strokeWidth=2;strokeColor=#607D8B;endArrow=block;endFill=1;" edge="1" parent="1" source="telemetry-lambda" target="cold-storage">
          <mxGeometry relative="1" as="geometry"/>
        </mxCell>
        
        <mxCell id="video-arrow1" style="edgeStyle=orthogonalEdgeStyle;rounded=0;orthogonalLoop=1;jettySize=auto;html=1;strokeWidth=3;strokeColor=#E91E63;endArrow=block;endFill=1;" edge="1" parent="1" source="vehicle-cameras" target="video-processor">
          <mxGeometry relative="1" as="geometry"/>
        </mxCell>
        
        <mxCell id="video-arrow2" style="edgeStyle=orthogonalEdgeStyle;rounded=0;orthogonalLoop=1;jettySize=auto;html=1;strokeWidth=3;strokeColor=#4CAF50;endArrow=block;endFill=1;" edge="1" parent="1" source="video-processor" target="s3-video">
          <mxGeometry relative="1" as="geometry"/>
        </mxCell>
        
        <mxCell id="video-arrow3" style="edgeStyle=orthogonalEdgeStyle;rounded=0;orthogonalLoop=1;jettySize=auto;html=1;strokeWidth=2;strokeColor=#FF9800;endArrow=block;endFill=1;" edge="1" parent="1" source="s3-video" target="rekognition">
          <mxGeometry relative="1" as="geometry"/>
        </mxCell>
        
        <mxCell id="video-arrow4" style="edgeStyle=orthogonalEdgeStyle;rounded=0;orthogonalLoop=1;jettySize=auto;html=1;strokeWidth=2;strokeColor=#2196F3;endArrow=block;endFill=1;" edge="1" parent="1" source="rekognition" target="video-metadata">
          <mxGeometry relative="1" as="geometry"/>
        </mxCell>
        
        <mxCell id="sales-arrow1" style="edgeStyle=orthogonalEdgeStyle;rounded=0;orthogonalLoop=1;jettySize=auto;html=1;strokeWidth=3;strokeColor=#607D8B;endArrow=block;endFill=1;" edge="1" parent="1" source="sales-forms" target="api-gateway-sales">
          <mxGeometry relative="1" as="geometry"/>
        </mxCell>
        
        <mxCell id="sales-arrow2" style="edgeStyle=orthogonalEdgeStyle;rounded=0;orthogonalLoop=1;jettySize=auto;html=1;strokeWidth=3;strokeColor=#2196F3;endArrow=block;endFill=1;" edge="1" parent="1" source="api-gateway-sales" target="sales-lambda">
          <mxGeometry relative="1" as="geometry"/>
        </mxCell>
        
        <mxCell id="sales-arrow3" style="edgeStyle=orthogonalEdgeStyle;rounded=0;orthogonalLoop=1;jettySize=auto;html=1;strokeWidth=3;strokeColor=#4CAF50;endArrow=block;endFill=1;" edge="1" parent="1" source="sales-lambda" target="sales-dynamodb">
          <mxGeometry relative="1" as="geometry"/>
        </mxCell>
        
        <mxCell id="alert-arrow1" style="edgeStyle=orthogonalEdgeStyle;rounded=0;orthogonalLoop=1;jettySize=auto;html=1;strokeWidth=3;strokeColor=#F44336;endArrow=block;endFill=1;" edge="1" parent="1" source="panic-button" target="panic-processor">
          <mxGeometry relative="1" as="geometry"/>
        </mxCell>
        
        <mxCell id="alert-arrow2" style="edgeStyle=orthogonalEdgeStyle;rounded=0;orthogonalLoop=1;jettySize=auto;html=1;strokeWidth=3;strokeColor=#9C27B0;endArrow=block;endFill=1;" edge="1" parent="1" source="panic-processor" target="sns-alerts">
          <mxGeometry relative="1" as="geometry"/>
        </mxCell>
        
        <mxCell id="alert-arrow3" style="edgeStyle=orthogonalEdgeStyle;rounded=0;orthogonalLoop=1;jettySize=auto;html=1;strokeWidth=3;strokeColor=#FF9800;endArrow=block;endFill=1;" edge="1" parent="1" source="sns-alerts" target="notifications">
          <mxGeometry relative="1" as="geometry"/>
        </mxCell>
        
        <!-- Data Volume Labels -->
        <mxCell id="iot-volume" value="201K records/day" style="text;html=1;strokeColor=none;fillColor=none;align=center;verticalAlign=middle;whiteSpace=wrap;rounded=0;fontSize=10;fontColor=#4CAF50;fontStyle=2;" vertex="1" parent="1">
          <mxGeometry x="300" y="90" width="80" height="20" as="geometry"/>
        </mxCell>
        
        <mxCell id="video-volume" value="2TB/month" style="text;html=1;strokeColor=none;fillColor=none;align=center;verticalAlign=middle;whiteSpace=wrap;rounded=0;fontSize=10;fontColor=#E91E63;fontStyle=2;" vertex="1" parent="1">
          <mxGeometry x="300" y="310" width="80" height="20" as="geometry"/>
        </mxCell>
        
        <mxCell id="sales-volume" value="1K transactions/month" style="text;html=1;strokeColor=none;fillColor=none;align=center;verticalAlign=middle;whiteSpace=wrap;rounded=0;fontSize=10;fontColor=#607D8B;fontStyle=2;" vertex="1" parent="1">
          <mxGeometry x="300" y="460" width="120" height="20" as="geometry"/>
        </mxCell>
        
        <mxCell id="alert-volume" value="Real-time" style="text;html=1;strokeColor=none;fillColor=none;align=center;verticalAlign=middle;whiteSpace=wrap;rounded=0;fontSize=10;fontColor=#F44336;fontStyle=2;" vertex="1" parent="1">
          <mxGeometry x="300" y="610" width="80" height="20" as="geometry"/>
        </mxCell>
        
      </root>
    </mxGraphModel>
  </diagram>
</mxfile>
